<?xml version="1.0" standalone="no"?>
<!DOCTYPE svg PUBLIC "-//W3C//DTD SVG 20010904//EN"
 "http://www.w3.org/TR/2001/REC-SVG-20010904/DTD/svg10.dtd">
<svg version="1.0" xmlns="http://www.w3.org/2000/svg"
 width="512.000000pt" height="512.000000pt" viewBox="0 0 512.000000 512.000000"
 preserveAspectRatio="xMidYMid meet">
<metadata>
Created by potrace 1.16, written by Peter Selinger 2001-2019
</metadata>
<g transform="translate(0.000000,512.000000) scale(0.100000,-0.100000)"
fill="#000000" stroke="none">
<path d="M0 2560 l0 -2560 700 0 700 0 0 86 c0 64 3 85 13 82 8 -3 13 -32 15
-86 l3 -82 444 0 445 0 0 465 0 465 240 0 240 0 0 -465 0 -465 1160 0 1160 0
0 2560 0 2560 -2560 0 -2560 0 0 -2560z m1862 455 c2 -154 0 -241 -7 -235 -5
6 -58 10 -117 10 l-108 0 0 235 0 235 115 0 114 0 3 -245z m1868 8 l0 -238
-120 3 -120 3 0 235 0 234 120 0 120 0 0 -237z m-1640 -455 c0 -5 54 -8 120
-8 l120 0 0 -120 0 -121 -117 3 -118 3 -3 118 -3 117 -120 0 c-88 0 -118 -3
-113 -12 5 -7 3 -8 -6 -3 -10 6 -10 10 2 19 17 13 238 16 238 4z m1400 -128
l0 -120 -115 0 -115 0 0 120 0 120 115 0 115 0 0 -120z m-460 -575 l0 -235
-355 0 -355 0 0 235 0 235 355 0 355 0 0 -235z"/>
</g>
</svg>
